<?xml version="1.0" standalone="no"?>
<!DOCTYPE svg PUBLIC "-//W3C//DTD SVG 20010904//EN"
 "http://www.w3.org/TR/2001/REC-SVG-20010904/DTD/svg10.dtd">
<svg version="1.0" xmlns="http://www.w3.org/2000/svg"
 width="2048.000000pt" height="2048.000000pt" viewBox="0 0 2048.000000 2048.000000"
 preserveAspectRatio="xMidYMid meet">

<g transform="translate(0.000000,2048.000000) scale(0.100000,-0.100000)"
fill="#000000" stroke="none">
<path d="M14115 18169 c-961 -50 -1861 -210 -2279 -402 -181 -84 -388 -230
-466 -329 -78 -98 -131 -237 -115 -306 3 -15 -3 -70 -14 -122 -95 -461 -268
-2020 -436 -3914 -47 -528 -88 -962 -91 -965 -6 -7 14 -28 -399 429 -475 526
-1122 1242 -1446 1600 -298 329 -522 552 -649 645 -41 31 -93 70 -115 89 -63
52 -98 66 -164 66 -90 0 -168 -30 -451 -173 -403 -204 -497 -259 -829 -491
-1023 -714 -2111 -1917 -2580 -2855 -116 -232 -191 -450 -191 -556 0 -49 4
-57 67 -136 75 -95 682 -705 1463 -1470 289 -282 773 -766 1076 -1074 303
-308 631 -636 728 -728 97 -93 176 -172 176 -177 0 -14 -54 -28 -134 -35 -100
-8 -243 -53 -325 -103 -192 -116 -283 -305 -252 -526 19 -136 15 -185 -20
-242 -17 -27 -92 -108 -166 -180 l-135 -132 -52 13 c-28 7 -86 22 -128 33 -87
24 -392 62 -489 62 -144 0 -420 -50 -588 -106 -57 -19 -105 -33 -107 -31 -2 2
22 41 53 87 142 212 293 488 356 650 74 188 112 391 103 536 -25 367 -239 625
-576 694 -225 46 -503 17 -755 -81 -430 -165 -839 -515 -1144 -978 l-75 -114
-17 119 c-29 199 -93 387 -173 507 -110 165 -312 270 -566 292 -221 20 -505
-73 -721 -235 -97 -72 -227 -215 -280 -306 -80 -136 -136 -298 -171 -494 -21
-121 -15 -458 10 -600 52 -285 176 -609 351 -915 137 -239 379 -585 588 -840
83 -102 142 -168 442 -496 63 -68 122 -143 132 -165 25 -56 43 -69 95 -66 53
2 100 24 109 51 3 10 38 43 78 72 166 120 430 342 640 537 49 45 95 82 102 82
51 0 148 -96 248 -245 139 -210 422 -487 590 -580 90 -50 398 -85 741 -85 490
1 677 52 917 251 51 43 274 327 336 430 66 108 249 470 272 537 120 354 131
662 33 925 -34 90 -87 188 -131 245 -23 28 -41 53 -41 56 0 2 28 19 63 36 196
103 299 218 342 385 19 75 19 133 -1 215 -8 36 -16 110 -17 165 -2 123 19 176
95 236 129 102 369 171 511 146 l71 -12 385 -380 c212 -209 444 -436 514 -505
l129 -125 -5 -60 c-2 -33 -14 -175 -27 -315 -20 -232 -26 -268 -63 -395 -27
-95 -53 -161 -80 -205 -55 -91 -259 -390 -327 -480 -31 -41 -108 -145 -170
-230 -133 -183 -311 -409 -393 -500 -101 -111 -204 -245 -222 -286 -9 -21 -19
-71 -22 -111 -5 -65 -3 -76 21 -117 30 -51 65 -79 128 -102 63 -24 360 -19
753 11 176 14 442 32 590 40 656 36 925 71 1023 133 44 28 67 102 52 168 -6
28 -22 52 -58 84 -58 52 -280 317 -380 452 -230 309 -455 731 -551 1031 -69
216 -85 341 -69 527 6 74 12 137 14 139 2 2 133 -122 291 -276 374 -364 749
-715 893 -839 63 -54 212 -193 330 -309 118 -116 231 -222 250 -236 40 -29
215 -127 339 -189 179 -90 442 -155 682 -171 92 -5 171 -16 210 -28 257 -79
592 -141 959 -178 216 -21 855 -25 1080 -5 964 84 1803 311 2562 693 423 214
768 453 1057 734 230 224 381 424 497 660 101 206 127 301 179 643 20 135 36
201 70 298 44 123 46 126 118 197 58 56 83 91 115 157 74 151 85 237 57 429
-15 96 -14 107 4 204 21 106 47 181 125 355 200 446 468 861 748 1158 61 64
82 94 89 125 22 97 -30 201 -126 252 -30 16 -58 21 -110 21 -61 0 -79 -4 -141
-36 -97 -50 -242 -99 -466 -158 -105 -28 -194 -50 -199 -50 -5 0 -9 12 -9 26
0 65 191 1625 205 1670 8 28 15 84 15 125 0 41 52 502 114 1024 63 523 113
951 112 952 -1 2 -110 -60 -242 -137 -131 -77 -242 -141 -246 -142 -4 -2 -46
-329 -93 -728 -47 -399 -90 -732 -94 -740 -7 -12 -39 -14 -207 -12 -184 3
-666 25 -794 37 -30 3 -156 12 -280 20 -833 55 -1908 59 -2850 10 -928 -49
-2334 -175 -2749 -246 -280 -48 -251 -47 -251 -7 0 20 16 210 35 424 288 3227
370 4330 382 5163 l6 393 121 59 c190 93 661 241 991 313 841 184 2060 245
3185 161 972 -74 1832 -239 2395 -462 281 -111 421 -196 571 -348 l102 -101
-9 -50 c-5 -27 -83 -670 -174 -1429 -91 -759 -175 -1460 -187 -1557 -12 -98
-19 -180 -16 -183 3 -3 52 18 109 48 57 29 160 75 229 101 69 27 130 54 136
60 7 6 37 219 68 481 31 259 108 904 172 1435 105 878 115 976 111 1090 -5
153 -27 220 -96 295 -26 27 -60 70 -76 93 -65 98 -250 241 -445 345 -144 78
-335 156 -565 232 -704 234 -1639 384 -2705 435 -245 11 -1101 11 -1325 -1z
m-6118 -3677 c74 -110 257 -337 403 -498 1324 -1469 2189 -2420 2220 -2440 46
-31 46 -30 29 -214 -9 -101 -13 -117 -33 -132 -12 -10 -111 -109 -219 -222
-155 -161 -197 -211 -197 -232 0 -85 188 -327 310 -399 l51 -30 -5 -45 c-3
-25 -8 -78 -12 -117 -6 -75 -12 -84 -34 -58 -7 8 -17 15 -22 15 -5 0 -33 20
-61 44 -29 24 -85 67 -126 95 -96 66 -124 67 -188 9 -44 -41 -345 -388 -390
-451 -27 -38 -29 -81 -5 -124 29 -54 245 -268 344 -341 55 -41 111 -93 138
-128 25 -32 68 -81 96 -109 28 -27 61 -66 74 -85 13 -19 34 -44 46 -55 l22
-20 -28 -319 c-16 -176 -33 -323 -37 -326 -9 -8 -572 -35 -579 -27 -2 2 21 24
53 47 160 120 334 284 352 332 14 38 6 54 -58 118 -31 30 -98 114 -148 185
-105 147 -256 327 -310 368 -64 47 -80 41 -237 -98 -80 -70 -335 -347 -365
-396 -26 -42 -26 -60 -1 -92 12 -15 20 -40 20 -63 0 -34 8 -46 88 -124 48 -47
137 -132 197 -188 l110 -102 -95 0 -95 1 -85 80 c-85 80 -143 119 -178 119
-29 0 -102 -52 -177 -127 l-70 -69 -165 8 c-91 5 -172 11 -180 14 -9 3 10 19
53 41 119 63 241 192 266 281 15 52 -4 52 -103 0 -153 -81 -296 -207 -296
-261 0 -11 8 -29 18 -40 17 -20 16 -20 -23 -13 -22 4 -82 11 -133 16 -142 14
-157 21 -267 116 -345 295 -463 369 -554 344 -92 -25 -211 -165 -288 -340 -26
-60 -37 -75 -53 -73 -58 7 -7 -51 458 -524 394 -400 747 -747 1121 -1099 l54
-51 -8 -76 -7 -77 -63 57 c-69 63 -572 539 -1020 964 -381 362 -688 647 -1085
1009 -391 356 -518 475 -1090 1020 -804 766 -1172 1109 -1300 1213 -41 33 -74
63 -73 66 6 19 188 346 251 451 484 808 1375 1736 2382 2481 282 209 425 305
810 548 109 68 404 219 430 220 8 0 38 -34 67 -77z m2603 -3709 c-12 -148 -26
-271 -29 -275 -15 -18 -251 216 -251 248 0 12 293 305 298 299 3 -3 -5 -125
-18 -272z m5880 197 c118 -6 373 -21 565 -35 193 -13 456 -29 585 -35 129 -6
305 -14 390 -18 l155 -7 -2 -25 c-8 -81 -195 -1637 -198 -1646 -5 -17 -665
-140 -1122 -209 -89 -14 -227 -36 -305 -50 -769 -133 -2571 -360 -3653 -460
-93 -8 -235 -22 -315 -30 -264 -27 -980 -85 -1290 -105 -168 -11 -335 -22
-372 -26 l-68 -6 0 30 c0 28 183 2107 196 2225 4 41 11 60 24 67 27 14 289 65
490 94 96 15 364 44 595 66 1196 115 1847 158 2775 184 224 6 1338 -4 1550
-14z m-6231 -817 c20 -15 64 -51 99 -81 56 -49 66 -54 97 -49 29 5 38 1 60
-25 22 -26 25 -37 20 -77 -3 -25 -19 -194 -35 -374 -15 -181 -30 -331 -33
-333 -2 -3 -33 27 -67 66 -35 39 -108 106 -164 150 -56 43 -135 113 -176 155
-41 42 -106 99 -143 127 -37 28 -67 56 -65 63 3 12 359 405 367 405 2 0 20
-12 40 -27z m-552 -1073 c44 -53 139 -157 212 -232 l131 -136 -28 -18 c-49
-32 -222 -175 -303 -251 -44 -41 -84 -73 -89 -71 -4 2 -93 75 -197 163 -103
88 -201 169 -217 181 l-28 20 163 161 c90 89 187 189 214 222 28 34 53 60 56
58 4 -1 42 -45 86 -97z m8318 -398 c66 -66 91 -137 119 -337 38 -268 48 -637
21 -755 -25 -104 -76 -254 -94 -271 -67 -67 -752 -430 -1016 -539 -204 -84
-452 -167 -678 -226 -391 -103 -571 -130 -802 -121 -231 9 -366 45 -601 157
-99 48 -130 68 -169 112 -108 119 -187 271 -225 430 -35 151 -41 248 -35 543
7 292 12 354 40 447 22 76 47 90 190 107 323 36 1230 162 1845 255 318 48 770
128 1075 190 143 29 268 50 277 48 9 -2 33 -20 53 -40z m-10426 -89 c47 -32
126 -96 175 -143 80 -77 86 -85 65 -90 -67 -15 -93 -188 -43 -287 62 -125 194
-189 471 -227 l106 -15 151 -149 c83 -81 173 -167 200 -190 l50 -43 -23 -277
c-12 -152 -24 -284 -25 -292 -1 -9 -51 32 -126 105 -192 186 -564 533 -676
631 -55 49 -157 138 -225 198 -211 186 -539 488 -539 497 0 4 5 11 10 14 6 4
27 32 46 63 47 74 155 203 202 242 48 41 71 36 181 -37z m1499 -288 l47 -45
-119 0 c-74 0 -116 4 -110 9 35 35 102 81 117 81 10 0 39 -20 65 -45z m4702
-659 c-43 -417 -141 -778 -298 -1096 -81 -164 -142 -232 -267 -297 -260 -135
-666 -218 -1385 -285 -74 -7 -272 -12 -440 -12 -290 0 -315 2 -520 32 -264 39
-669 120 -691 138 -50 43 -173 335 -243 575 -97 338 -196 865 -196 1050 0 55
2 59 23 59 12 0 144 5 292 10 948 36 2313 141 3580 278 l160 17 3 -134 c2 -84
-5 -210 -18 -335z m-4992 109 c-3 -30 -7 -58 -11 -61 -5 -5 -147 104 -147 113
0 2 37 3 81 3 l81 0 -4 -55z m488 -43 c44 -52 99 -133 144 -215 40 -73 84
-147 98 -165 37 -51 69 -141 117 -337 24 -99 57 -224 73 -277 l30 -97 -39 25
c-77 48 -146 28 -245 -73 -120 -121 -194 -243 -194 -319 0 -37 42 -112 108
-195 71 -89 278 -291 321 -314 28 -14 36 -14 77 0 103 35 132 64 191 193 20
42 37 78 38 80 2 2 24 -19 49 -46 27 -29 68 -59 96 -71 45 -19 54 -28 85 -91
l35 -70 -16 -92 c-30 -172 0 -471 66 -662 11 -33 18 -61 16 -63 -2 -2 -34 29
-72 69 -125 131 -753 749 -1067 1048 l-307 293 5 51 c14 119 9 112 64 112 36
0 59 7 84 25 19 13 70 49 113 78 140 97 188 150 254 280 35 68 38 118 11 176
-11 24 -96 120 -215 242 l-197 202 7 143 c3 79 9 147 11 151 3 4 46 6 96 5
l91 -3 72 -83z m-4429 53 c319 -74 432 -370 296 -775 -35 -107 -137 -314 -228
-465 -239 -398 -647 -953 -991 -1345 -142 -163 -868 -891 -1084 -1089 l-154
-141 -26 32 c-13 18 -65 78 -115 132 -350 385 -548 635 -760 961 -240 368
-380 664 -454 965 -38 157 -51 260 -51 420 0 281 78 538 212 700 96 115 267
229 429 286 99 35 273 44 369 20 253 -65 364 -229 465 -686 35 -157 64 -240
85 -240 5 0 16 -13 25 -30 9 -17 24 -30 34 -30 14 0 20 10 24 45 11 101 234
412 452 630 345 347 757 572 1140 624 88 12 248 5 332 -14z m9408 -531 c54
-190 85 -272 169 -440 87 -177 161 -278 306 -424 87 -87 120 -113 195 -152
247 -128 508 -182 875 -181 393 2 629 42 1035 178 105 35 266 95 359 134 93
39 171 69 173 67 7 -7 -214 -134 -358 -207 -342 -171 -666 -307 -1214 -507
-781 -285 -1007 -363 -1450 -495 -611 -183 -1047 -290 -1575 -386 -673 -122
-1021 -162 -1426 -165 l-210 -1 -40 29 c-79 59 -223 215 -286 312 -125 189
-165 291 -174 439 -6 87 7 300 19 311 3 3 47 -1 99 -10 117 -20 304 -39 668
-67 555 -42 989 -11 1435 103 315 80 516 163 711 293 129 86 146 104 211 223
160 293 279 647 328 972 14 91 56 256 73 285 3 5 14 -34 23 -86 9 -53 33 -154
54 -225z m-5231 -16 c62 -49 206 -190 206 -203 0 -30 -91 -132 -191 -215 -61
-51 -113 -90 -115 -87 -3 3 2 65 10 138 8 74 20 194 27 267 7 72 14 132 17
132 2 0 23 -14 46 -32z m677 -737 c25 -31 67 -75 93 -99 35 -33 57 -66 86
-133 l40 -89 -65 -80 c-36 -45 -79 -106 -97 -136 -17 -31 -34 -52 -38 -47 -4
4 -38 51 -77 103 -39 53 -107 129 -150 171 l-79 76 22 32 c12 19 43 75 68 126
54 109 122 182 140 150 6 -10 32 -43 57 -74z m7996 -173 c-20 -281 -198 -601
-501 -903 -185 -184 -491 -424 -500 -393 -2 7 -7 153 -10 323 -3 171 -9 355
-12 411 l-7 101 41 16 c82 33 777 399 875 462 56 35 106 64 111 65 5 0 6 -36
3 -82z m-11852 -323 c99 -8 272 -34 302 -46 25 -9 24 -10 -36 -47 -34 -20 -83
-55 -109 -78 -46 -40 -49 -41 -104 -36 -108 9 -276 -58 -365 -145 -71 -69
-105 -143 -101 -220 3 -55 2 -58 -36 -93 l-39 -36 -171 86 c-203 103 -330 155
-448 184 l-87 21 52 65 c60 74 102 104 266 188 125 65 230 99 409 132 192 36
273 41 467 25z m575 -290 c60 -126 74 -191 74 -340 0 -71 -6 -159 -13 -195
-36 -189 -120 -404 -218 -558 l-40 -63 -31 53 c-38 69 -155 193 -290 310 -141
122 -241 195 -383 279 -65 39 -117 75 -114 78 2 4 21 13 42 20 32 11 43 10 68
-3 67 -35 167 -13 296 64 155 93 248 212 236 303 -2 23 -8 49 -11 58 -5 12 14
23 91 54 54 21 121 49 148 62 l50 23 29 -32 c15 -18 45 -69 66 -113z m10100
-62 c0 -76 7 -259 15 -408 8 -148 15 -282 15 -296 0 -23 -15 -34 -137 -102
-139 -77 -424 -217 -441 -217 -6 0 -12 141 -16 348 -4 191 -9 394 -12 452 l-6
106 59 24 c32 13 159 70 283 127 124 56 228 103 233 103 4 0 7 -62 7 -137z
m-10619 27 c24 -13 25 -59 3 -105 -20 -44 -114 -132 -160 -151 -53 -22 -139
-23 -161 -2 -16 16 -16 20 -1 52 23 48 70 99 142 153 75 57 135 75 177 53z
m-1086 -221 c202 -85 418 -194 551 -276 137 -85 392 -281 499 -384 151 -145
244 -289 245 -374 0 -34 -10 -53 -64 -125 -196 -261 -305 -349 -511 -413 -148
-46 -421 -76 -696 -77 -129 0 -183 12 -330 76 -175 74 -367 232 -447 366 -73
122 -119 322 -107 461 l7 79 115 121 c136 143 310 344 442 510 52 64 97 117
100 117 3 0 92 -36 196 -81z m10953 -634 c5 -143 7 -265 5 -271 -5 -14 -227
-96 -430 -159 -303 -95 -843 -219 -863 -199 -16 17 -56 560 -60 811 0 6 39 24
88 38 312 94 812 256 1007 327 l230 84 7 -185 c4 -103 11 -303 16 -446z
m-1520 -32 c31 -237 41 -345 49 -497 l6 -134 -29 -6 c-143 -29 -646 -66 -904
-66 -275 0 -728 34 -750 56 -5 5 -13 86 -19 179 -6 94 -14 188 -17 210 l-5 40
153 29 c293 55 1028 230 1343 320 66 19 127 35 136 35 12 1 19 -29 37 -166z
m-1892 -294 c-3 -17 -6 -96 -6 -174 l0 -143 -87 19 c-227 49 -507 137 -673
212 l-55 24 55 7 c30 3 127 13 216 21 88 9 232 27 320 39 87 13 176 24 198 25
38 1 38 1 32 -30z"/>
<path d="M7888 14101 c-65 -42 -385 -289 -435 -337 -48 -45 -52 -58 -24 -74
16 -8 33 0 98 46 64 47 255 196 373 291 l27 22 86 -87 c47 -48 112 -123 145
-167 32 -44 98 -121 145 -172 48 -50 87 -95 87 -100 0 -4 -85 -93 -190 -196
-225 -223 -255 -267 -180 -267 20 0 54 19 107 59 91 69 271 252 314 319 48 76
43 90 -74 211 -56 58 -137 152 -181 208 -77 101 -172 187 -222 199 -22 6 -22
7 -8 30 16 24 12 44 -10 44 -6 0 -33 -13 -58 -29z"/>
<path d="M7560 13655 c0 -25 14 -47 141 -225 64 -91 139 -186 166 -212 58 -57
114 -83 143 -68 19 10 19 12 4 42 -9 17 -42 57 -73 87 -32 31 -86 90 -122 131
-212 247 -259 292 -259 245z"/>
<path d="M7138 13519 c-44 -25 -25 -58 173 -306 234 -291 349 -423 542 -619
l148 -152 -123 -110 c-68 -60 -163 -155 -212 -211 -49 -55 -92 -101 -96 -101
-8 0 -666 681 -807 835 -55 61 -112 121 -127 134 -14 14 -26 28 -26 32 0 4 89
70 198 148 108 77 214 156 235 175 35 34 48 68 28 81 -6 3 -3 18 7 35 36 63
-14 50 -87 -23 -29 -28 -150 -124 -270 -212 -175 -131 -217 -166 -219 -187 -3
-28 20 -58 238 -298 52 -58 165 -189 250 -290 333 -397 513 -602 545 -617 20
-10 43 -13 59 -9 39 10 281 250 398 395 56 69 116 143 135 164 18 20 33 48 33
61 0 44 -175 259 -471 581 -165 179 -427 441 -483 483 -32 24 -43 26 -68 11z"/>
<path d="M8689 13183 c-20 -21 -59 -68 -87 -105 -29 -36 -113 -124 -188 -194
-100 -95 -134 -133 -132 -148 7 -48 39 -29 167 97 69 69 162 156 206 195 l79
70 106 -98 c58 -54 141 -135 185 -181 44 -46 117 -120 163 -164 45 -44 82 -83
82 -86 0 -3 -50 -55 -111 -115 -61 -60 -138 -143 -172 -184 -58 -73 -124 -139
-139 -140 -4 0 -40 48 -79 106 -49 73 -113 149 -207 244 -140 141 -216 196
-228 165 -11 -28 18 -116 59 -178 49 -74 283 -316 346 -358 43 -28 94 -38 105
-20 4 5 66 54 139 110 170 129 368 300 377 326 4 11 3 39 -2 63 -8 35 -31 65
-146 188 -145 154 -317 308 -392 353 -32 18 -45 31 -42 44 5 22 -15 47 -37 47
-9 0 -33 -17 -52 -37z"/>
<path d="M6207 12758 c-34 -18 -20 -57 46 -126 35 -37 158 -173 274 -302 384
-428 434 -483 697 -759 144 -150 261 -277 261 -281 0 -4 -68 -81 -152 -171
-83 -90 -185 -205 -225 -256 -40 -50 -76 -91 -79 -90 -4 1 -177 169 -385 372
-209 204 -489 470 -624 592 -289 261 -448 419 -435 431 6 5 87 70 180 144 181
145 365 305 365 319 0 47 -117 -31 -485 -325 -155 -123 -165 -132 -165 -154 0
-8 89 -104 198 -215 108 -111 255 -267 327 -347 182 -204 962 -986 1001 -1005
29 -14 38 -14 66 -2 61 26 212 197 491 557 119 153 121 163 45 247 -258 290
-1321 1357 -1367 1374 -9 4 -25 3 -34 -3z"/>
<path d="M8262 12243 c-19 -13 -211 -216 -450 -475 -82 -89 -82 -102 1 -196
112 -128 615 -572 648 -572 42 0 89 38 273 219 176 174 288 297 314 348 35 64
0 120 -175 279 -121 110 -320 280 -382 326 -50 37 -95 50 -127 38 -20 -8 -24
-6 -24 8 0 40 -38 53 -78 25z m100 -170 c14 -21 125 -137 246 -258 l220 -220
-80 -90 c-44 -50 -129 -150 -190 -223 l-111 -133 -151 148 c-176 173 -289 280
-364 344 l-54 45 207 224 c114 124 215 236 224 249 l16 25 6 -37 c3 -20 17
-53 31 -74z"/>
<path d="M9629 12203 c-19 -16 -98 -95 -175 -178 -78 -82 -164 -171 -192 -197
-55 -49 -72 -89 -53 -119 6 -10 11 -36 11 -57 0 -28 9 -52 32 -83 46 -64 420
-441 506 -510 83 -67 112 -78 153 -58 44 21 408 386 451 453 21 33 38 70 38
83 0 70 -609 623 -687 623 -7 0 -13 10 -13 23 0 22 -16 47 -31 47 -3 0 -22
-12 -40 -27z m299 -378 c98 -99 204 -200 235 -225 31 -25 55 -48 54 -51 -1 -3
-77 -84 -168 -178 l-167 -172 -48 50 c-80 80 -350 326 -432 392 -43 34 -78 64
-79 68 -3 6 27 41 241 284 l110 124 37 -56 c21 -32 118 -138 217 -236z"/>
<path d="M5334 11915 c-8 -21 3 -34 242 -283 250 -261 428 -454 639 -697 309
-355 354 -405 521 -570 l171 -170 -151 -144 c-83 -79 -173 -156 -200 -171
l-48 -28 -217 221 c-119 122 -465 470 -770 775 l-554 553 19 23 c10 14 80 91
154 173 75 81 145 162 158 180 36 50 25 103 -21 103 -27 0 -111 -84 -272 -270
-167 -194 -172 -202 -151 -235 19 -29 187 -205 476 -500 118 -121 375 -384
570 -584 399 -409 559 -561 591 -561 13 0 49 26 88 63 40 36 129 99 217 152
293 177 326 205 310 269 -14 58 -345 400 -666 690 -377 339 -482 439 -791 743
-157 156 -292 283 -298 283 -6 0 -14 -7 -17 -15z"/>
<path d="M9101 11087 c-147 -144 -209 -199 -321 -285 -61 -47 -43 -78 179
-311 91 -96 224 -236 295 -310 71 -75 139 -140 153 -146 18 -7 33 -4 61 10 46
25 270 247 341 338 30 37 73 81 97 98 62 42 70 61 49 116 -33 86 -281 367
-489 555 -104 93 -111 98 -154 98 -44 0 -46 -1 -211 -163z m287 -88 c113 -142
390 -432 434 -455 16 -8 28 -19 26 -24 -2 -4 -52 -45 -113 -90 -60 -46 -139
-108 -173 -139 -35 -31 -81 -71 -102 -88 l-38 -33 -194 213 c-107 116 -230
252 -273 301 l-79 89 85 81 c104 101 311 277 320 274 4 -2 52 -59 107 -129z"/>
<path d="M4730 11166 c-41 -30 -76 -65 -197 -199 -24 -26 -43 -51 -43 -55 0
-5 -9 -17 -20 -27 -25 -23 -26 -55 -2 -55 10 0 23 5 30 12 15 15 12 18 60 -77
54 -108 124 -202 235 -314 215 -217 344 -275 458 -203 72 46 255 218 273 257
23 47 15 70 -65 182 -131 184 -245 293 -413 392 -113 67 -226 121 -253 121
-10 0 -38 -15 -63 -34z m137 -119 c27 -22 84 -65 128 -96 94 -66 242 -205 331
-312 l63 -77 -105 -102 c-112 -109 -109 -108 -179 -72 -82 41 -354 281 -495
436 l-61 67 80 86 c45 47 95 105 113 128 l33 42 22 -30 c13 -17 44 -49 70 -70z"/>
<path d="M4772 10983 c-36 -7 -92 -69 -92 -103 0 -37 44 -90 76 -90 19 0 24 5
24 24 0 13 -7 29 -15 36 -8 7 -15 21 -15 31 0 22 55 55 65 38 10 -14 35 9 35
32 0 17 -29 41 -47 38 -4 -1 -18 -4 -31 -6z"/>
<path d="M4866 10891 c-4 -5 -3 -16 0 -25 4 -10 -5 -31 -21 -51 -17 -23 -25
-45 -23 -62 3 -30 28 -49 52 -40 14 6 14 10 4 26 -10 17 -9 25 9 48 16 22 27
27 52 25 22 -2 31 1 31 12 0 8 -5 18 -10 21 -7 4 -7 12 0 25 13 24 -3 35 -29
20 -13 -7 -22 -7 -26 0 -8 12 -32 13 -39 1z"/>
<path d="M4963 10730 c-51 -48 -64 -72 -43 -85 5 -3 26 4 47 15 23 12 57 20
86 20 41 0 48 3 45 18 -2 9 -17 21 -35 26 -23 7 -32 15 -30 29 4 35 -17 28
-70 -23z"/>
<path d="M5098 10630 c-79 -81 -92 -105 -62 -117 19 -7 173 151 174 180 1 36
-37 15 -112 -63z"/>
<path d="M7914 10842 c-100 -73 -392 -402 -436 -490 -19 -41 -20 -46 -5 -75 8
-18 96 -116 195 -219 99 -103 195 -207 213 -233 35 -49 65 -63 98 -45 48 25
30 51 -175 252 -107 106 -204 204 -214 218 l-18 26 69 79 c39 44 105 125 148
180 99 127 179 215 196 215 8 0 67 -57 132 -127 65 -69 160 -171 212 -224 l94
-98 -74 -84 c-115 -130 -180 -212 -209 -264 -15 -26 -43 -73 -63 -103 -20 -30
-37 -59 -37 -65 0 -22 41 -54 75 -61 62 -11 117 19 229 124 127 120 207 218
251 306 38 74 43 121 21 164 -25 48 -515 510 -573 540 -38 21 -87 14 -129 -16z"/>
<path d="M5564 10088 c-71 -68 -138 -128 -149 -134 -32 -18 -40 -39 -25 -73
14 -34 332 -350 447 -443 99 -82 112 -83 203 -12 236 181 289 263 197 310 -17
9 -102 85 -187 168 -86 83 -178 169 -205 191 -28 22 -70 57 -94 77 -24 21 -47
38 -51 38 -4 0 -65 -55 -136 -122z m205 -3 c30 -36 126 -136 215 -221 l161
-156 -31 -26 c-17 -15 -61 -53 -98 -86 l-66 -58 -57 51 c-59 53 -302 264 -362
314 l-33 27 64 68 c35 37 79 87 98 110 18 23 39 42 45 42 6 0 35 -29 64 -65z"/>
<path d="M5799 9847 c-61 -41 -47 -111 31 -152 18 -9 31 -10 43 -4 26 15 21
34 -18 68 -35 30 -35 30 -13 45 13 9 32 13 49 9 25 -5 29 -2 29 15 0 45 -68
55 -121 19z"/>
<path d="M8753 10074 c-48 -24 -151 -137 -218 -240 -32 -49 -80 -122 -107
-162 -26 -41 -51 -85 -54 -98 -5 -20 -9 -22 -25 -13 -27 14 -59 2 -59 -22 0
-36 27 -73 111 -154 178 -170 307 -304 377 -387 64 -78 76 -88 105 -88 51 0
72 21 71 69 -1 23 2 41 6 41 27 0 183 123 286 225 142 141 168 188 143 256
-21 59 -259 357 -364 457 -131 125 -196 153 -272 116z m243 -362 l197 -204
-51 -44 c-67 -58 -204 -237 -239 -311 -15 -32 -29 -60 -30 -62 -1 -2 -66 57
-145 130 -79 74 -178 165 -220 202 l-77 69 62 71 c34 40 102 124 151 187 102
132 137 171 147 168 4 -2 96 -95 205 -206z"/>
<path d="M7306 10045 c-9 -25 10 -59 76 -136 84 -98 315 -335 350 -360 26 -19
29 -19 35 -4 19 51 -139 254 -360 463 -56 52 -90 65 -101 37z"/>
<path d="M7221 10019 c-100 -61 -268 -227 -310 -306 -16 -31 -14 -79 5 -97 8
-9 17 -16 18 -16 14 0 185 191 256 286 109 144 118 186 31 133z"/>
<path d="M6820 9606 c0 -32 143 -197 379 -438 134 -137 167 -159 178 -118 3
12 14 20 28 20 90 0 407 337 381 406 -9 25 -60 15 -111 -21 -28 -18 -116 -99
-198 -178 l-147 -143 -207 223 c-113 123 -217 233 -231 244 -29 22 -72 25 -72
5z"/>
<path d="M6460 9404 c-94 -61 -220 -195 -220 -234 0 -11 16 -47 36 -82 51 -86
365 -401 397 -396 13 2 22 10 22 20 0 9 -87 107 -194 218 -163 169 -192 204
-178 211 9 6 60 58 114 117 53 59 101 107 107 107 7 0 49 -40 95 -90 189 -203
383 -394 411 -404 79 -27 32 61 -123 230 -196 214 -341 339 -391 339 -12 0
-46 -16 -76 -36z"/>
<path d="M8141 9246 c-8 -10 -9 -22 -1 -42 15 -41 550 -567 557 -547 9 22 -12
53 -143 217 -173 215 -345 386 -390 386 -6 0 -17 -6 -23 -14z"/>
<path d="M7973 9116 c-87 -81 -146 -172 -119 -182 8 -3 19 -3 25 0 14 9 165
197 179 223 30 56 5 43 -85 -41z"/>
<path d="M6561 9136 c-28 -30 -63 -123 -56 -147 11 -33 38 -40 96 -24 79 20
102 30 123 54 20 22 20 22 -2 43 -20 21 -25 21 -68 10 -26 -7 -49 -11 -51 -8
-3 3 0 21 7 40 19 58 -8 76 -49 32z"/>
<path d="M6907 8892 c-39 -24 -177 -202 -177 -229 0 -12 9 -27 21 -33 60 -33
239 141 239 232 0 48 -35 60 -83 30z"/>
<path d="M7800 8854 c0 -36 449 -488 467 -470 4 4 -100 113 -230 244 -130 130
-237 232 -237 226z"/>
<path d="M6400 15470 c-38 -66 -102 -175 -142 -242 -198 -340 -392 -602 -598
-809 -212 -213 -276 -249 -466 -266 l-91 -9 -6 121 c-10 236 -90 386 -205 385
-105 -1 -153 -72 -170 -250 l-7 -75 -35 60 c-37 62 -70 84 -70 46 0 -11 16
-54 35 -95 19 -41 35 -79 35 -85 0 -5 23 -56 51 -113 29 -57 67 -136 85 -176
l33 -72 -19 -33 c-14 -25 -97 -245 -156 -417 -10 -27 -22 11 -90 277 -36 142
-75 275 -85 296 -23 44 -71 77 -114 77 -71 0 -133 -69 -220 -245 -57 -113 -67
-162 -39 -185 31 -27 65 0 144 114 42 60 80 111 86 113 6 2 20 -44 33 -109 43
-219 153 -674 173 -716 32 -68 98 -91 160 -54 60 35 150 256 227 562 l37 145
30 -3 c42 -4 85 34 114 99 22 51 22 111 0 124 -5 3 -31 -21 -56 -55 -26 -33
-50 -60 -53 -60 -3 0 -18 26 -33 58 l-27 57 25 23 c13 13 24 27 24 32 0 5 26
-3 57 -17 47 -22 77 -27 160 -31 60 -3 129 0 165 7 223 44 475 274 696 638
119 196 270 538 367 831 44 134 50 172 26 172 -6 0 -42 -54 -81 -120z m-1462
-1038 c50 -116 52 -241 6 -432 l-6 -25 -14 25 c-7 14 -28 68 -46 120 -28 85
-32 108 -32 215 -1 101 2 125 17 149 17 26 20 27 37 11 10 -9 27 -38 38 -63z"/>
<path d="M16795 13911 c-238 -65 -739 -277 -933 -394 -85 -51 -132 -100 -132
-138 0 -10 11 -31 24 -46 39 -45 100 -37 330 43 396 138 563 193 629 207 l68
15 -7 -21 c-19 -62 -160 -331 -289 -552 -182 -310 -326 -596 -350 -694 -45
-185 22 -346 173 -413 76 -34 210 -30 332 12 163 55 583 271 950 488 177 104
535 343 639 426 83 66 292 227 526 404 83 62 177 137 210 166 202 177 230 204
230 221 0 10 -7 22 -16 28 -20 13 -20 13 -414 -173 -165 -78 -336 -156 -380
-174 -200 -82 -687 -318 -935 -453 -80 -44 -239 -131 -355 -195 -314 -172
-414 -223 -421 -215 -4 4 86 193 199 419 270 540 307 633 307 779 0 116 -48
207 -133 251 -59 30 -162 34 -252 9z"/>
<path d="M3736 13407 c-83 -46 -166 -185 -166 -276 0 -38 20 -68 39 -57 5 4
12 21 16 39 10 49 48 108 99 155 37 35 53 42 85 42 56 0 94 -36 140 -134 50
-106 73 -195 116 -456 46 -283 97 -499 121 -517 65 -48 132 29 216 252 46 121
63 186 88 338 34 217 24 326 -28 298 -27 -14 -54 -88 -91 -251 -27 -118 -136
-420 -152 -420 -12 0 -49 188 -84 430 -63 428 -145 580 -312 580 -31 0 -62 -8
-87 -23z"/>
<path d="M3430 13278 c1 -100 83 -369 233 -758 107 -278 307 -671 365 -717 23
-18 42 -16 42 5 0 10 -34 94 -76 188 -88 197 -240 570 -395 974 -133 346 -135
350 -154 350 -11 0 -15 -11 -15 -42z"/>
</g>
</svg>
